<svg width="552" height="373" viewBox="0 0 552 373" fill="none" xmlns="http://www.w3.org/2000/svg">
<path d="M357.116 291.708L359.192 296.305L359.606 298.393L363.773 299.542L361.479 303.515L358.364 302.859L357.707 305.682L352.713 304.947L348.652 309.754H344.492L335.95 313.937L334.806 315.5L334.701 318.849L328.984 319.893L323.307 325.061L324.141 329.034L327.677 330.183L329.549 329.454L331.941 327.051L338.283 326.841L347.541 335.201L350.978 335.306L353.574 334.649L360.861 339.771L362.938 347.192L362.209 351.132L359.087 353.017L358.982 354.987L359.403 359.275L356.071 362.407L354.717 364.811L356.689 367.109L361.893 367.838L364.285 371.286L369.483 372.96L370.423 369.828L372.815 372.54L376.974 371.286L382.074 366.899L385.504 363.451L389.447 355.197L399.014 350.39L403.489 350.705L405.881 347.776L410.041 351.119L411.289 349.766L411.809 346.003L414.306 344.539L415.758 342.45L418.879 341.925L420.029 337.013L424.189 333.46L428.243 333.047L434.815 339.311L439.704 339.108L442.096 335.45L447.609 337.748L451.46 335.24L454.476 334.196L451.67 329.284L453.543 323.433L455.514 320.924L459.989 320.504L459.155 317.877L451.144 317.358L441.787 316.623L438.77 323.846L434.92 321.338L433.047 318.875L429.617 323.367L424.833 325.77L419.944 329.428L412.867 326.375L409.121 325.751L405.277 321.568L408.188 317.181L405.691 312.584L400.388 310.706L399.139 308.506H395.288V304.244L391.438 302.78L388.941 300.061L385.721 299.227L384.367 295.884L379.268 295.156L376.981 300.166L374.484 298.498L374.175 294.105L372.591 292.956L370.094 296.41L364.062 290.762L360.96 287.63L357.116 291.708Z" fill="#003174"/>
<path d="M487.589 237.066L489.56 227.57L488.903 225.271L488.246 223.301L489.889 221.66L490.546 215.093L488.246 212.466L485.946 207.869L483.646 206.556L481.346 206.227L479.703 203.929V201.959L481.018 199.989L480.032 197.034L478.061 194.735L479.046 193.067V190.769L480.36 189.455H482.66L483.646 187.485L486.275 187.157L485.618 184.202L486.275 183.545H488.246L489.56 182.56L488.246 179.933L488.575 177.963L489.56 175.993V173.695L491.203 171.396L493.832 172.053L496.46 174.352L498.76 178.62L499.417 180.59L503.031 183.874L505.66 184.117L506.317 180.59L507.552 179.165L508.742 180.209L510.713 184.524L515.195 184.734L516.134 189.331L522.187 189.646L523.435 190.999L523.751 194.545L518.224 195.202L516.66 203.857L512.271 206.858L508.203 207.482L503.196 210.194V219.387L500.271 224.286L504.444 225.436L500.797 229.087L502.466 233.152L500.896 237.847L499.332 234.616L490.362 234.826L489.008 236.796L487.589 237.066Z" fill="#003174"/>
<path d="M506.25 179.165L505.672 179.933L505.343 183.217H503.7L500.086 179.933L499.429 177.963L497.129 173.695L493.843 171.397L491.215 170.74L488.915 173.695V175.993L487.929 177.307L487.601 179.933L488.915 182.56L487.601 182.889H485.629L484.972 184.202L485.629 186.5L483.001 186.829L482.015 188.799H480.359L478.388 190.769V192.411L476.745 194.709L479.374 197.007L480.359 199.963L479.045 201.933L478.388 203.903L480.688 206.858L482.988 207.186L485.288 208.5L487.588 213.096L489.888 215.066L488.902 221.962L487.588 222.618V224.588L488.902 227.544L486.273 237.066L485.649 237.125L483.98 235.352L480.951 236.396L475.838 245.885L473.788 244.191L470.864 245.235L465.429 248.886L465.219 246.069L468.347 244.814L469.392 240.434L464.588 237.722L460.31 234.596L460.829 230.84L465.002 230.525L465.837 227.084L469.07 226.04L470.009 220.412L465.107 218.947L460.829 215.506L455.717 215.296L453.949 211.54L449.474 207.055L447.181 202.156L449.474 200.068L446.846 197.776L447.365 193.08L451.018 192.765L451.853 194.538L456.131 194.643L457.176 190.578L456.131 189.219L457.281 188.385L457.379 183.591L453.838 181.713L453.627 174.824L455.816 170.97L453.943 169L451.229 170.773L450.394 167.332L448.199 166.911L447.996 160.443L450.394 161.382L452.793 159.195H455.612L458.01 161.073L459.574 158.046L465.626 151.893L466.356 148.031L468.859 144.485L472.093 148.55L474.176 146.58L475.01 147.309L475.115 150.126L479.058 151.17L480.313 153.252L484.913 152.523L488.455 149.896L493.153 150.415L495.966 154.172L496.387 159.182L495.657 164.501L497.951 170.444L501.893 172.007L503.457 174.93L501.893 177.747L503.773 179.52L506.25 179.165Z" fill="#003174"/>
<path d="M550.757 171.81L545.875 173.268L547.748 168.067L544.843 164.429L544.942 159.957L539.501 159.576L538.186 159.904L535.229 159.084L533.587 156.949L529.644 155.964V153.009L529.315 152.353L527.344 153.994L526.687 155.308L526.03 157.278L522.087 156.293L519.787 153.666L514.858 154.651L513.873 157.278L508.741 156.949L506.316 158.591V160.89L503.687 161.218L502.373 162.86L502.702 166.143L505.659 169.426V174.023L508.189 176.65L507.959 177.963L508.944 178.62L511.317 183.46L515.877 183.769L516.81 188.365L522.521 188.569L524.19 190.441L524.61 194.492L527.199 196.364L531.247 193.56L533.219 193.035L535.814 195.845L540.171 193.875L545.152 194.808L548.057 193.041L546.499 184.209L547.537 180.669L548.162 175.573L551.999 173.498L550.757 171.81Z" fill="#003174"/>
<path d="M507.139 177.983L504.169 178.468L503.13 177.424L504.583 174.83L502.611 171.186L498.774 169.629L496.697 164.323L497.321 159.227L496.907 153.718L493.793 149.561L489.022 149.042L489.127 145.923L489.022 141.241L486.117 137.392L482.694 132.927L481.031 127.936L483.311 123.773L482.28 119.826L483.936 116.497L482.378 111.716L483.627 107.973L483.831 105.057L487.675 103.291L488.292 96.5332L490.684 96.9469L491.302 100.276L496.178 101.419L501.474 100.592L504.379 104.019H507.592L512.678 107.244L517.246 102.463L522.325 109.319L526.268 107.244L530.007 108.492L531.768 114.211L536.026 114.106L538.931 116.188L543.077 111.919L547.125 110.987L543.596 116.392L548.682 121.901L549.202 126.787L544.74 132.408L543.701 136.25L537.478 138.121L536.545 141.865L539.864 143.736L543.393 143.946L546.402 146.442L549.51 144.885L549.924 146.442L547.539 148.313L542.663 147.584L538.72 151.951L539.029 159.083L538.53 159.247L535.901 158.262L533.93 156.292L530.316 155.635V153.665V152.352L529.33 151.695L526.702 153.665L526.044 154.979L525.716 156.62L522.43 155.635L520.13 153.009L514.216 153.994L513.559 156.62L508.302 156.292L505.674 158.262V160.232L503.045 160.561L501.731 162.531V166.471L505.016 169.754L504.688 172.709L505.016 174.351L507.645 177.306L507.139 177.983Z" fill="#003174"/>
<path d="M467.73 244.099L468.565 240.973L464.28 238.477L459.588 235.036L460.245 230.039L464.523 229.73L465.253 226.394L468.492 225.357L469.222 221.082L464.839 219.834L460.765 216.498L455.343 216.294L453.372 212.124L448.989 207.751L446.794 202.964L446.275 203.377L445.079 205.544H440.801L438.83 207.317L436.116 205.236L433.191 206.483L431.417 204.92L432.462 201.9L430.05 198.977L430.149 196.351L427.52 196.035L427.106 194.065L423.348 196.035L418.859 193.015L413.747 196.554L410.304 194.473L407.485 195.412L398.817 195.517L396.005 197.073L393.81 196.449L393.153 201.046L395.972 203.016L393.048 206.24L393.567 207.698L396.07 208.322L395.446 212.262L398.16 213.72L397.115 222.159L389.184 223.091L384.695 222.362L379.373 224.654L375.824 226.322L377.914 229.238V233.926L381.042 235.798L383.237 232.574L385.74 236.323V242.05L388.868 246.942L388.454 250.068L393.153 251.736L395.656 256.628L390.991 262.223L395.065 263.681L393.389 267.844L400.191 270.655L404.679 271.594L406.565 279.094L409.193 276.907L410.862 273.262L412.531 277.202L414.621 277.728L423.164 268.981L430.891 260.752L439.552 259.813H442.056L444.146 262.519L449.153 256.169L453.536 254.711L456.986 253.043L460.219 255.124L462.19 251.066L464.819 249.398L464.504 245.458L467.73 244.099Z" fill="#003174"/>
<path d="M399.658 271.324L392.108 268.008L393.659 263.956L389.315 262.4L394.487 256.385L392.318 252.333L387.456 250.573L387.87 247.04L384.867 242.266V236.559L383.217 234.175L381.246 236.973L377.001 234.379V229.5L374.937 226.597L370.075 224.936L364.39 226.078L357.05 227.215L353.108 223.274L347.193 228.049L345.748 225.041L341.095 223.583L339.236 223.898L340.99 225.146L341.299 230.642L338.506 230.958L339.334 232.409L340.648 233.552L340.957 240.191L339.82 241.852L335.687 243.1L334.136 246.318L338.27 248.596L339.203 251.919L337.028 252.234V255.347L333.085 256.07V259.287L327.828 260.22L326.277 257.212H323.169L321.855 259.287L317.616 259.806L316.992 262.4L313.995 260.22L312.793 261.573L311.761 263.753L305.847 264.272L306.675 266.452L311.426 270.188L315.875 269.564L316.289 270.911L322.393 271.745L318.254 277.556L313.292 274.023L307.188 273.61L299.23 273.406L296.765 271.869L292.422 273.505L295.832 277.661L300.281 275.376L304.52 277.346L309.172 276.519L310.21 280.354L304.296 282.744L301.622 281.72L299.447 283.9L299.966 285.456L304.513 286.08L309.376 285.351L312.372 289.088L315.369 288.779L317.748 293.757L322.505 293.343L327.986 290.854L333.367 291.373L339.571 291.058L341.43 288.26L342.981 290.749L346.602 286.08L348.048 291.682L351.563 292.096L353.837 293.448L356.945 290.644L360.559 286.704L363.043 283.073L365.836 285.975L368.419 283.69L372.973 288.569L376.488 281.306L381.246 288.26L382.895 285.351L386.411 288.155L388.067 290.231L386.207 291.892L388.178 295.523L390.662 294.795L391.694 290.854L390.866 287.118L394.283 285.765L395.933 288.05L395.21 290.854V293.035L397.483 294.381L399.139 292.411L399.553 288.674L398.522 284.938L399.757 280.472L401.827 282.442L405.448 279.421L403.693 272.158L399.658 271.324Z" fill="#003174"/>
<path d="M311.885 260.969L313.758 258.999L316.387 260.765L316.801 258.894L321.276 258.375L322.734 256.195H326.789L328.248 259.104L332.302 258.48V255.262L336.245 254.533V251.414L338.118 251.105L337.592 249.135L332.913 246.541L335.102 242.279L339.261 240.933L340.194 239.896L339.885 233.867L338.637 232.935L337.073 230.131L340.405 229.71L340.194 225.455L337.763 223.781L335.134 220.661L334.615 218.376L337.737 215.467L338.256 209.557L336.488 207.37L336.804 203.114L334.175 202.28L330.015 206.221L327.387 205.183L326.657 208.828L326.454 213.503L321.565 215.578L316.669 214.121L312.306 213.188L308.455 217.365L305.643 214.042L298.572 214.35L299.926 208.637L294.616 204.382L296.587 202.714L297.106 199.91L293.256 199.496L288.478 203.732L288.794 199.989L286.606 199.332L281.197 200.369L278.7 194.866L275.165 194.348L272.247 197.257L267.463 199.227L265.801 196.219L264.552 196.324L261.845 199.542L258.908 198.019L253.605 197.703L251.311 199.673L252.146 200.606L249.051 202.379L250.615 205.912L253.007 207.678L252.481 212.978L255.918 215.572L255.188 221.804L259.348 222.841L263.718 221.909L264.861 223.57L266.53 221.39L270.69 226.788L269.336 231.385L269.027 235.752L271.419 239.383L274.744 240.007L276.617 238.451L279.844 240.526L277.662 243.022L281.303 244.683L283.931 247.697L282.157 253.41L276.749 253.305L275.29 254.448L275.605 256.32L280.389 260.161V264.627L278.516 268.055H281.638L284.03 269.926L289.129 265.047L289.858 261.718L292.559 263.379L292.25 266.288L292.04 269.302L293.183 268.994L295.05 266.682L300.353 269.486L303.159 266.781L302.015 262.525L304.723 261.691L305.347 263.254L311.07 262.729L311.885 260.969Z" fill="#003174"/>
<path d="M279.141 260.253L274.476 256.542L273.957 253.764L276.132 252.116L281.113 252.221L282.565 247.69L280.488 245.221L275.928 243.251L278.208 240.572L276.447 239.442L274.785 240.755L270.533 240.04L267.839 235.916L268.148 231.181L269.39 226.958L266.281 222.946L264.619 225.107L263.068 222.946L259.125 223.767L253.941 222.453L254.769 216.051L251.345 213.582L251.864 208.23L249.709 206.713L247.737 202.181L250.642 200.638L249.288 199.088L243.479 198.885L242.033 195.897L238.399 197.21L235.252 195.693L232.249 196.724L231.73 200.842L225.507 201.15L224.16 199.18L221.774 201.341L217.207 200.829L214.224 197.959L211.944 198.163L211.74 201.873L207.482 204.342L210.596 208.768L213.915 205.163L217.339 208.873V213.713L218.994 217.653L216.925 222.802L214.539 227.845L220.243 230.826L224.284 238.864L226.88 235.049L229.995 237.314L229.265 240.099L228.332 246.482L230.409 249.673L228.543 253.896L233.727 257.291L238.183 256.982L240.778 262.439L239.74 268.717L240.673 271.193L239.326 273.459L244.511 277.983L242.539 281.588L235.797 279.533L232.571 275.81L228.838 280.958L223.759 277.563L223.548 275.087L216.083 281.884L214.73 277.944L215.045 272.9L210.583 274.036L207.468 277.228L206.64 285.049L210.997 288.333L207.468 292.66L208.198 297.493L201.042 299.352L200.312 305.63L195.338 307.6L192.118 311.717L193.675 315.835L192.637 320.261L185.79 319.335L182.682 320.464L184.962 323.656L186.21 328.391L193.051 331.628L199.767 332.942L201.015 325.015L204.025 327.071L205.162 330.781L215.847 323.163H223.732L229.331 326.25L230.369 332.738L232.236 329.238L231.611 323.781L227.905 321.121L229.666 318.961L226.762 316.695L227.077 310.516L228.838 304.645L232.367 307.121L232.262 312.886L234.023 314.633L234.542 312.578L234.023 309.071L237.966 308.25L237.65 305.164L241.593 302.589L243.459 305.059L245.431 301.453L247.402 304.441L252.074 297.539L255.288 294.558L257.778 290.539L261.721 285.601L261.412 280.761L265.874 278.699L266.078 272.132L271.368 270.996L276.243 267.713H277.071L279.148 264.107L279.141 260.253Z" fill="#003174"/>
<path d="M453.997 170.011L450.876 172.092L449.942 168.034L448.273 167.614L447.754 169.905L444.429 169.695L442.346 167.509L439.12 172.821L435.998 173.34L435.341 168.861L431.076 165.841L430.761 161.992L426.286 160.324L425.629 155.327L422.928 153.764L418.762 157.199L413.768 154.572H408.044L399.784 147.099H394.79L390.847 147.204L387.621 147.617L383.763 149.804L379.912 151.262L374.813 156.47L373.67 160.009L375.221 162.859L374.182 167.646L368.268 167.436L363.274 165.873L361.717 165.565L359.745 166.602L354.436 166.084L352.563 166.918L354.022 168.999L360.37 172.23L349.343 179.519L352.044 190.558L346.307 195.037L337.876 202.917L337.561 206.982L339.328 209.268L338.671 215.933L335.793 218.678L336.108 220.241L338.395 222.946L341.306 222.533L346.511 224.089L347.654 226.591L353.273 221.994L357.537 226.164L364.509 225.015L370.424 223.872L375.418 225.534L379.268 223.662L384.887 221.265L389.487 221.994L396.557 221.16L397.392 214.081L394.764 212.518L395.289 208.873L393.206 208.217L392.306 205.833L394.934 203.022L392.542 201.249L393.377 195.109L396.078 195.838L398.746 194.38L407.485 194.275L410.607 193.231L413.833 195.201L419.038 191.655L423.513 194.781L427.883 192.489L428.402 194.991L431.214 195.3L431.109 198.426L433.606 201.551L432.561 204.362L433.501 205.196L436.307 203.948L438.936 205.82L440.605 204.362H444.659L445.599 202.49L448.405 199.864L446.19 198.025L446.847 192.115L451.842 191.694L452.67 193.468L455.692 193.573L456.422 190.657L455.068 188.989L456.625 187.846L456.731 184.097L453.294 182.126L452.985 174.522L454.956 170.982L453.997 170.011Z" fill="#003174"/>
<path d="M296.22 204.421L301.109 208.361L299.966 213.451L306.202 213.135L308.588 216.051L312.123 212.209L317.012 213.247L321.684 214.698L325.627 212.938L325.942 208.781L326.981 204.001L329.99 205.143L334.15 201.302L337.37 202.339L345.788 194.459L350.985 190.414L348.278 179.276L358.464 172.526L353.371 169.899L351.202 166.799L354.218 165.341L359.515 165.86L360.763 165.204L355.881 161.362H350.788L344.552 160.219L343.409 155.13L337.797 153.265L328.959 153.009L329.064 153.219L328.959 157.888L321.165 160.692L316.697 155.918L311.814 155.708L309.186 158.512L308.463 163.811L304.822 161.631L300.354 165.992L298.382 162.051L294.847 161.743L289.958 162.57L290.063 165.998L285.91 171.501L281.75 170.359L277.591 172.23L272.814 170.464L264.705 169.84L260.446 174.719L259.717 180.629L255.873 178.449L250.261 184.267L248.178 182.186L244.334 184.681L241.423 188.207L238.617 186.132L236.566 188.319L241.764 192.161L243.013 194.965L244.36 197.874L250.077 197.979L250.911 199.016L253.507 196.836L259.421 197.151L261.807 198.465L264.304 195.451L266.485 195.352L268.043 198.156L271.887 196.495L275.008 193.481L279.477 194.21L281.908 199.437L286.791 198.498L289.912 199.332L289.702 201.617L293.132 198.603L298.33 199.122L297.6 203.278L296.22 204.421Z" fill="#003174"/>
<path d="M404.442 92.4616L401.432 93.4992L398.521 97.8465L395.295 96.7039L390.616 100.959H390.511L389.887 103.139L390.932 105.109L387.705 108.235L388.954 109.273L389.683 112.077L394.046 112.799L395.19 114.671L399.133 113.837V118.821L402.05 122.348L404.127 122.243L405.684 120.581L407.452 122.971L406.519 124.528L408.911 126.603L407.452 128.882L408.805 131.581H404.022L405.27 133.761L404.232 137.294L400.802 140.715L396.432 139.783L395.499 138.745L394.355 140.302L393.521 143.585L395.078 146.08L400.177 145.975L408.49 153.442L414.214 153.547L418.814 155.832L422.973 152.509L426.712 154.585L427.231 159.464L431.831 161.125L432.14 165.065L436.3 168.178L436.819 172.02L438.692 171.711L442.227 165.689L444.928 168.598L447.109 168.697L447.635 166.622L447.425 158.636L450.546 159.95L452.833 157.875H456.263L458.031 159.326L459.174 157.146L465.088 151.13L465.713 147.289L469.143 142.725L472.468 146.875L474.545 145.01L476.108 146.566L476.214 149.055L479.953 149.988L480.991 151.859L484.842 151.235L488.167 148.845L488.272 145.627L488.167 141.273L485.466 137.74L481.931 133.071L480.058 127.575L482.345 123.32L481.28 119.517L483.048 116.234L481.49 111.46L482.805 107.618L483.015 104.814L477.502 98.6936L473.966 98.2799L468.354 92.0545L468.768 86.9717L464.714 87.0768L463.393 82.0859L458.925 82.6047L458.616 85.9276L454.975 88.1012L447.596 87.6875L442.391 92.2843L442.082 95.8108L439.066 96.3295L433.658 89.6904L431.89 92.9016L428.881 92.4879L424.504 85.7174L417.223 85.9276L411.197 92.7769L410.047 91.2139L407.866 93.2956L404.442 92.4616Z" fill="#003174"/>
<path d="M369.003 89.5002L367.545 84.7129L362.945 87.9372L357.95 85.2317L352.877 88.7712L347.988 87.4185H341.844L338.92 85.3696L337.461 86.8274L333.295 87.0376L327.052 92.8624L323.307 94.7012L317.064 94.2809L313.522 91.9956L311.754 93.3484L308.732 96.2641L306.333 95.2199L304.25 99.9021L309.77 104.066L310.499 108.124L315.802 112.806L314.659 118.421L319.449 120.713L320.074 124.246L326.645 129.762L324.253 141.517L328.314 151.925L337.678 152.234L343.809 154.322L344.952 159.313L350.577 160.462L355.887 160.357L361.506 164.724L363.175 165.138L368.064 166.596L373.17 166.806L374.004 163.168L372.335 160.147L373.689 156.089L379.103 150.677L383.046 149.121L386.989 146.829L390.426 146.416H393.652L392.193 144.124L393.028 140.184L394.999 137.688L396.452 139.251L400.099 140.078L403.016 137.064L403.844 134.149L402.077 130.819L406.972 130.924L406.032 129.053L407.386 127.083L404.994 125.001L405.927 123.339L405.198 122.295L404.16 123.438L401.242 123.543L397.805 119.386V115.223L394.276 115.925L393.133 113.844L388.533 113.115L387.699 109.995L385.924 108.538L389.361 105.208L388.428 103.442L389.157 101.15L387.074 100.94L382.448 103.337L374.845 104.171L375.995 98.6544L371.934 95.325L372.243 91.9956L369.003 89.5002Z" fill="#003174"/>
<path d="M242.296 182.619L243.656 183.873L247.927 181.161L249.807 183.131L255.228 177.385L258.566 179.165L259.19 174.364L263.987 168.933L272.642 169.662L277.123 171.232L281.401 169.459L285.153 170.496L288.8 165.696L288.702 161.756L294.432 160.817L298.71 161.132L300.379 164.475L304.322 160.534L307.45 162.413L308.107 158.131L311.13 154.788L316.866 154.999L321.144 159.694L327.906 157.258V153.396L323.424 141.707L325.823 130.117L319.363 124.771L318.739 121.323L313.732 118.92L314.882 113.075L309.769 108.59L309.04 104.519L303.724 100.447L301.529 100.966L300.386 105.038L297.757 107.126L298.073 110.987L294.734 116.523L290.792 119.34L284.746 116.103L279.949 117.147L277.859 120.903L278.28 128.836L276.4 129.775L278.07 131.968L274.423 136.769L271.084 140.427L270.25 143.559L265.768 142.823L263.58 144.183L262.009 141.366L260.137 143.559L255.655 143.244L254.19 148.044L250.122 145.956L248.039 146.061L246.37 143.559L242.723 146.79L240.633 146.895L238.55 150.966L234.173 151.072L234.279 152.634L229.994 155.793L230.31 157.986L232.393 157.258L231.874 161.119L233.746 161.776L234.476 166.267L235.415 169.708H238.235L238.754 174.095L242.092 174.305V178.58L242.296 182.619Z" fill="#003174"/>
<path d="M210.939 197.198L214.487 196.883L217.615 199.917L221.472 200.337L224.397 197.71L226.066 200.114L230.961 199.903L231.487 195.825L235.43 194.571L238.558 196.035L241.686 194.886L240.746 192.693L234.904 188.405L238.242 184.957L240.956 186.927L243.144 184.3L241.58 182.941L241.37 178.344V174.897L238.137 174.686L237.723 170.398L234.904 170.293L233.866 166.222L233.136 162.249L231.165 161.592L231.586 158.355L229.811 158.978L229.286 155.111L233.564 151.978L233.353 147.585L226.368 141.524L228.872 139.015V137.235L227.827 136.086L228.872 133.893L226.789 131.594L229.286 129.5L228.142 128.561L224.909 128.35L220.112 131.174H213.002L210.282 127.063L211.221 122.67L210.492 117.548L207.574 117.968L204.551 120.89L200.484 121.311L196.311 119.636L193.387 122.46L190.16 120.89L185.882 122.04L180.671 121.935L177.642 122.985L175.454 125.179L176.604 126.958L176.183 129.362L175.138 132.914L174.14 134.687L176.952 140.02L177.997 146.501L177.576 150.441L173.929 152.116L170.381 149.292L167.982 151.17L165.689 151.906L162.968 155.807L163.277 168.034L160.34 173.367H162.738L165.242 176.604L166.596 180.997L170.039 183.624L174.212 183.099L179.107 188.851L183.175 189.16V192.614L190.062 193.238L194.333 199.509L197.776 197.106L205.077 198.57L206.746 203.377L206.851 203.587L210.794 201.289L210.939 197.198Z" fill="#004BB3"/>
<path d="M74.0386 76.2615L77.1534 74.4819L82.3381 79.2889L80.1696 83.1502L81.0041 85.3435L84.0072 84.5095L87.8448 89.3099L92.8258 88.1607L97.8003 89.3099L99.4628 88.581V86.8014L97.5966 85.5537L98.8386 83.669L99.3577 80.7467L103.714 80.4381V77.6143L105.784 77.9295L105.581 76.1564L107.756 74.9022L113.565 74.0682L120.517 76.7803L121.345 75.0072L121.03 70.7256L123.658 69.6815L125.524 67.7114V63.6399L128.797 62.2674L127.969 59.3452H124.756L123.921 55.8976L127.759 54.1245L128.488 52.2464L123.717 49.5277L121.641 44.2019H114.899V38.4624L113.762 36.2691L116.042 34.9097V32.0925L113.966 30.2078L113.683 27.5811L117.521 22.8857L117.626 20.167L114.071 16.4173L108.991 18.1904L106.501 14.4473L101.73 17.5797L82.9624 16.1153L80.0579 19.4578L80.2616 23.8445L71.2392 30.4114L65.6405 26.3399L58.7932 26.7536L58.6947 29.1571L62.2169 36.5712L58.4844 41.3716L65.9493 49.9085L66.9876 58.7804L74.354 65.3473L66.4685 66.004L69.7541 72.3739L74.0386 76.2615Z" fill="#003174"/>
<path d="M71.5743 189.908L71.7846 184.491L66.7773 179.493L64.1488 181.266L61.4348 179.296L61.2245 172.421L57.3672 174.089L53.2273 170.437L51.2559 165.65L47.392 162.734L43.8501 162.629L40.0848 158.991L36.0171 158.157L32.4687 153.16L27.3365 152.221L25.3651 147.223L21.4223 143.375L17.8739 143.06L16.9013 141.188L15.4425 141.294L14.3977 146.396L8.13524 151.288L6.99183 159.615L5.42787 161.802L1.77424 162.321L0 165.65L0.315421 170.437L3.85734 170.648L6.15728 179.598L11.6837 180.019L13.8785 187.616L18.8858 185.535L21.6852 192.817H25.9565L30.2344 187.301L38.3959 195.628L41.5239 193.343L50.0665 199.253L54.4627 196.35L61.3494 202.917L67.8155 198.025L73.9728 199.168L74.8074 195.628L74.9125 193.133L71.5743 189.908Z" fill="#003174"/>
<path d="M223.424 55.2996L223.634 58.3204L229.548 61.3477L229.759 66.3517L227.577 68.3217L230.797 72.1765L229.653 74.8033L231.94 75.9459L232.597 80.5427L229.272 83.6686L230.587 87.3198L228.405 92.5339L232.67 93.578L233.603 98.0567L235.265 101.084L235.988 107.027L233.938 109.825L234.595 112.123L237.026 114.92L233.084 119.09L226.953 121.487V125.033L228.72 128.264L230.797 130.037L228.096 132.231L230.067 134.313L229.029 136.499L229.864 137.438L229.759 139.835L227.787 142.029L234.326 147.656L234.431 150.369H238.275L240.351 146.199L242.632 146.094L246.791 142.442L248.763 145.365L250.524 145.26L253.744 146.928L255.202 142.547L259.875 142.863L262.365 140.045L264.028 143.171L265.69 142.134L269.633 142.758L270.362 140.131L273.786 136.381L277.006 132.211L275.14 129.584L277.42 128.54L277.006 120.929L279.398 116.654L284.898 115.406L290.812 118.532L294.032 116.135L297.147 111.026L296.733 107.086L299.532 104.794L300.781 100.414L303.482 99.8954L305.565 95.0228L300.479 90.8528L302.141 87.2016L297.022 83.5504L289.051 88.6529L282.716 89.1782L277.42 85.3169L278.465 81.9809L273.477 77.1871L264.547 77.7058L265.375 73.4308L262.26 70.5151L260.078 66.7588L261.018 60.5071L256.136 53.9402L253.126 51.7469L251.253 45.18L248.868 43.4069L240.871 43.0983L238.584 46.014L234.95 45.4952L234.536 42.6846L232.459 42.7896L228.096 48.9428L226.125 48.6276L227.163 51.4448L223.424 55.2996Z" fill="#003174"/>
<path d="M260.808 66.2009L262.779 69.5566L266.229 72.8007L265.48 76.4716L273.635 76.0513L279.385 81.4952L278.445 84.7787L282.835 88.0227L288.788 87.6025L297.154 82.1585L303.318 86.6634L301.648 90.3277L306.459 94.3073L308.653 95.2529L311.282 92.7378L313.582 90.8531L317.557 93.3682L323.307 93.7885L326.751 92.0023L332.921 86.2431L334.281 82.3686L331.981 79.2231L335.53 75.6638L333.651 71.4742L336.161 69.0641L335.504 63.7252L329.235 59.634L328.61 56.39L332.264 51.1365L329.635 45.7976L334.13 41.713L333.473 31.9677L331.383 30.7134L331.068 25.9984L333.039 22.229L339.407 19.044L339.302 15.1695L341.707 12.7792L337.422 8.37937L339.617 0.499084L334.479 0L327.809 6.07438L324.562 4.71503L321.119 7.02002L316.204 2.9354L310.874 3.04048L309.83 13.4096L303.764 16.4173L299.375 15.5833L297.075 14.1123L281.908 13.4096L278.248 17.8094L276.158 14.5588H271.394L270.455 18.3348L264.166 24.5142L261.971 32.4733L259.566 33.13L258.403 36.7746L258.508 40.1238L260.387 41.6998V46.2967L262.477 47.656L261.537 52.6928L256.938 53.4217L261.748 59.9164L260.808 66.2009Z" fill="#003174"/>
<path d="M343.059 13.0419L340.391 15.7606L340.496 19.832L334.063 23.0695L332.295 26.4055L332.505 30.3457L334.687 31.5999L335.305 42.2449L331.053 46.1062L333.544 51.3203L329.877 56.6658L330.291 59.1678L336.52 63.2393L337.25 69.3925L334.963 71.6909L336.829 75.8674L333.406 79.3085L335.482 82.1257L334.168 85.987L337.592 85.8819L339.254 84.1089L342.54 86.5058H348.454L353.12 87.7601L358.311 84.0038L363.193 86.821L368.378 83.0647L370.041 88.9093L373.464 91.536L373.155 94.8786L377.308 98.2146L376.277 103.1L382.401 102.477L387.178 99.9679L390.188 100.178L394.959 95.798L397.968 96.9406L400.669 92.8757L404.303 91.6214L407.523 92.4554L409.389 90.5773L407.208 87.655L407.523 85.3632L402.956 84.6277L401.504 77.0101L403.166 71.1655L397.456 61.5647L399.118 59.3779L397.561 57.6049L393.204 59.3779L391.956 52.1543L386.975 52.2594L382.303 54.2295L377.322 54.5447L377.006 51.2218L371.605 51.0183L368.181 52.9883L365.69 50.6965L367.767 46.625L363.095 43.4926L365.48 40.7805V37.3591L360.604 32.1056L363.509 28.4544L369.305 27.4431L369.719 24.6259L359.98 15.2352L359.875 8.34653L350.951 0L344.334 5.01055L342.671 1.0704L340.7 0.965335L338.623 8.3728L343.059 13.0419Z" fill="#003174"/>
<path d="M172.922 45.0157L171.043 43.5513L171.141 47.4914L168.631 49.3761L169.367 52.2984L166.955 56.1663L166.331 59.9291L161.652 62.7726L161.442 66.9557L162.907 69.2541L161.961 71.5525L164.057 75.4139L161.856 79.0716L161.127 82.6243L163.427 87.9501L161.021 90.7738L165.937 96.2047L169.288 99.232L171.798 97.459L173.369 103.31L172.843 109.056L170.333 109.785L169.183 115.111L173.264 119.294L177.45 122.531L180.584 121.382L185.841 121.487L190.343 120.233L193.378 121.697L196.204 118.979L200.699 120.758L204.26 120.338L207.29 117.521L211.476 116.864L212.317 123.136L211.476 127.312L213.677 130.655H219.953L224.763 127.837L227.694 128.041L226.228 125.119V120.732L232.714 118.223L235.96 114.776L233.871 112.372L233.029 109.45L235.231 106.626L234.574 101.196L232.898 98.1616L232.064 94.0901L227.253 92.9409L229.658 86.9848L228.298 83.2219L231.748 79.9844L231.222 76.2216L228.594 74.9739L229.849 72.1501L226.392 67.967L228.903 65.6686L228.692 61.5971L222.837 58.5698L222.522 54.7019L226.182 50.939L225.137 48.2269L223.048 47.8066L219.907 43.4199L220.327 38.4028L218.231 35.1653L216.036 35.0603L213.94 39.8672H209.754L208.078 42.7895L207.763 48.5946L203.708 44.07L203.262 38.7443L198.346 37.2799L195.823 40.4189L191.88 34.1475L188.739 38.324L183.824 39.2696L181.524 34.9815L180.052 40.8326L177.226 42.5071L175.761 41.0427L172.922 45.0157Z" fill="#003174"/>
<path d="M167.91 150.448L170.735 148.255L174.501 151.079L177.129 149.929L177.445 146.685L176.505 140.407L173.482 134.622L174.737 132.527L175.684 129.184L176.098 127.09L174.737 124.995L177.142 122.696L173.2 119.656L168.705 114.947L169.96 108.669L172.464 107.934L172.884 103.022L171.629 98.517L169.658 99.9814L165.787 96.4288L160.353 90.3544L162.863 87.3205L160.767 82.7236L158.993 82.9338L156.364 83.3541L153.124 85.3241L150.2 85.0155L145.705 89.724L141.566 94.5638L138.654 96.6652H135.829L133.397 100.323L130.992 100.008L131.833 102.103L130.769 105.662L128.798 109.116L128.482 113.404L130.158 118.323L130.684 125.651L126.826 129.519L128.607 135.068L129.442 141.136L127.345 144.695L128.607 149.824L127.345 154.323L127.036 160.39L128.186 163.326L127.483 169.604L131.971 176.407L135.323 176.512L136.473 180.59L137.412 180.275L137.623 175.146L139.923 175.251L140.968 176.926L142.012 173.577L145.462 173.892L146.823 177.136L148.794 174.509L150.765 174.923L151.186 176.703L153.591 176.499L155.056 174.614L157.56 176.584L159.446 173.754L162.791 167.896L162.37 155.649L165.406 151.151L167.91 150.448Z" fill="#003174"/>
<path d="M89.4021 152.576L92.944 152.681L93.9691 154.322L96.2625 155.675L97.7213 159.208L103.248 158.998L108.669 162.938L109.504 167.824L112.632 169.072L116.909 172.605L120.662 170.523L123.06 172.289L125.255 176.23L130.256 177.267L131.406 176.23L126.806 169.472L127.535 163.135L126.49 160.226L126.806 153.889L127.949 149.522L126.701 144.222L128.797 140.729L127.962 135.121L126.089 129.211L130.032 125.159L129.507 118.408L127.837 113.522L128.258 108.847L130.229 105.314L131.064 102.299L129.815 98.9765L130.026 95.7522L125.124 95.2334L121.996 96.1659L117.718 99.909L112.086 99.4953L109.274 99.075L107.71 101.045L107.053 107.179L106.014 111.434L101.322 114.061L96.6239 113.851L95.2374 115.578L95.9405 119.846L91.9977 120.365L89.5992 124.213L85.3279 125.454L83.4551 128.055L85.7485 130.235L86.4779 135.016L87.9367 140.105L86.7933 142.916L86.583 145.201H90.3352L90.9923 147.171L87.8578 149.358L89.4021 152.576Z" fill="#003174"/>
<path d="M162.823 174.115H160.194L157.908 177.576L155.411 175.606L154.162 177.182L150.725 177.392L150.206 175.501L149.378 175.29L146.697 178.62L145.034 174.43L142.951 174.22L141.394 178.725L139.626 175.79H138.792L138.483 180.616L136.19 181.555L134.941 177.155L132.135 177.05L130.578 178.515L124.749 177.155L122.357 173.064L120.589 171.705L116.844 173.905L112.244 170.03L109.149 168.77L106.455 170.864L107.808 174.115L107.598 178.2L104.273 181.765L102.919 180.406L99.581 181.247L94.692 186.172L89.5926 191.097L84.9928 196.449L84.4736 201.998L86.2413 204.408L83.4551 210.798H87.5096L95.5199 203.252H110.601L112.894 200.422L122.462 201.368L127.87 191.754L140.559 190.604L143.471 182.724L149.299 186.283L151.796 183.768L156.79 185.87L160.01 182.409L163.027 183.768L166.253 180.938L164.899 176.853L162.823 174.115Z" fill="#003174"/>
<path d="M83.4884 202.261L84.0075 196.022L88.8702 190.512L93.9433 185.522L98.9046 180.531L103.044 179.493L104.083 180.531L106.567 177.904L106.665 174.371L105.141 170.831L108.426 168.205L107.703 163.733L102.939 160.232L97.0252 160.443L95.4744 156.594L93.1941 155.347L92.3661 153.784L88.7454 153.679L86.6754 149.312L89.8822 147.131L89.5734 146.403H85.5583L85.8672 142.968L87.004 140.341L85.6897 135.455L84.9669 130.859L81.0241 127.326L76.8842 126.741L73.9863 127.68L73.3686 131.732L71.9164 135.889L72.1266 138.7L75.3334 140.361L73.5723 143.067L69.3338 142.548L64.6748 143.585L58.9841 143.277L54.5419 144.735L51.8543 143.901L48.8512 148.373L46.157 151.177L46.0584 157.001L44.7441 161.887H47.8458L52.0908 165.112L54.0622 170.004L57.683 173.123L62.2369 171.153L62.342 178.843L64.2017 180.196L66.8959 178.324L72.6918 184.234L72.4815 189.639L75.7671 192.758L75.5634 195.884L74.7354 199.627L82.6998 210.134L85.1838 204.415L83.4884 202.261Z" fill="#003174"/>
<path d="M26.3369 147.472L27.8943 151.537L32.8885 152.476L36.4238 157.48L40.4849 158.314L43.6062 161.545L44.8548 156.85L45.0651 150.94L47.9696 147.755L51.1961 142.856L54.324 143.815L58.6939 142.501L64.4175 142.705L69.2013 141.766L73.0521 142.081L73.8867 140.728L71.1793 139.369L70.8704 135.823L72.3227 131.548L73.0521 126.951L76.7977 125.802L81.3976 126.458L82.7513 127.818L84.7227 124.895L88.9874 123.648L91.4845 119.786L94.9147 119.373L94.2905 115.511L96.2618 113.114L101.151 113.325L105.212 111.138L106.145 107.198L106.46 104.801L101.677 104.387L99.1795 100.112L99.4883 95.5151L100.323 93.7421L99.6986 92.803L97.4052 94.0573L96.1567 92.2842L97.2015 89.9923L92.7265 88.9482L87.3183 90.1959L83.5661 85.4021L80.3462 86.2361L78.9925 82.9001L81.0691 79.354L76.8832 75.427L73.7618 77.2L69.819 73.5488L70.0293 78.6579L66.1786 83.5568L57.2285 84.2135L53.7983 89.7428L42.7651 98.0828L36.3187 105.484L25.6272 114.835L21.0273 121.198L21.5465 124.948L24.8781 129.748L21.6845 136.624L25.7455 140.899L26.3369 147.472Z" fill="#003174"/>
<path d="M114.786 29.5907L116.863 31.4689L116.968 35.2251L114.996 36.3743L115.719 38.0423V43.1514H122.29L124.472 48.6807L129.552 51.603L128.487 54.5055L124.958 56.1735L125.478 58.1436L128.691 58.2487L129.834 62.6354L126.411 63.9882V67.7444L124.13 70.1413L121.949 71.0804L122.258 74.9417L120.91 77.7852L113.439 74.7579L108.044 75.5196L106.487 76.3536L106.697 78.7571L104.62 78.4419V81.0687L100.02 81.4889L99.6064 83.8859L98.7784 85.1401L100.336 86.0792L100.231 88.9949L98.1542 89.934L97.2539 92.0748L97.773 92.6986L100.053 91.4509L101.407 93.6377L100.369 95.6078L100.158 99.7778L102.34 103.429L106.592 103.744L106.901 100.717L108.872 98.2148L112.197 98.7402L117.382 99.0488L121.535 95.3976L125.064 94.3535L130.978 95.0102L130.662 98.9503L130.767 99.2655L133.153 99.5808L135.538 95.9296H138.443L141.038 94.1565L144.981 89.3561L149.857 84.3521L152.867 84.6608L155.981 82.6907L158.781 82.277L160.548 82.0668L161.376 78.6258L163.348 75.2898L161.271 71.5335L162.204 69.2351L160.857 67.0483L161.061 62.0378L165.838 59.3257L166.357 55.7795L168.638 52.1283L167.915 48.8974L170.504 47.0193L170.405 41.595L172.994 43.6833L175.485 40.1306L176.109 36.1905L174.033 36.4006L171.542 33.6885L168.013 36.7749L165.319 36.4663L164.8 31.7709L162.204 30.8647V27.5025L158.156 26.4649L156.704 28.7567H153.281L147.472 24.4817L141.452 24.8954L139.481 22.1833L133.882 22.2883L130.662 17.9082L124.544 18.3285L122.882 17.0742L118.42 20.1016V23.0173L114.582 27.7126L114.786 29.5907Z" fill="#003174"/>
</svg>
