<svg width="23" height="42" viewBox="0 0 23 42" fill="none" xmlns="http://www.w3.org/2000/svg">
<path d="M19.3272 40.8309L1.19019 22.2249C0.871643 21.8981 0.693363 21.4598 0.693363 21.0034C0.693363 20.5471 0.871643 20.1087 1.19019 19.7819L19.3272 1.16894C19.4756 1.01654 19.653 0.895408 19.849 0.812702C20.0449 0.729991 20.2555 0.687381 20.4682 0.687381C20.6809 0.687381 20.8915 0.729992 21.0874 0.812702C21.2834 0.895408 21.4608 1.01654 21.6092 1.16895C21.9145 1.48149 22.0854 1.90105 22.0854 2.33794C22.0854 2.77484 21.9145 3.1944 21.6092 3.50694L4.55369 21.0034L21.6092 38.4964C21.9134 38.8088 22.0837 39.2276 22.0837 39.6637C22.0837 40.0997 21.9134 40.5186 21.6092 40.8309C21.4608 40.9833 21.2834 41.1045 21.0874 41.1872C20.8915 41.2699 20.6809 41.3125 20.4682 41.3125C20.2555 41.3125 20.0449 41.2699 19.849 41.1872C19.653 41.1045 19.4756 40.9833 19.3272 40.8309Z" fill="white"/>
</svg>
