<svg width="23" height="42" viewBox="0 0 23 42" fill="none" xmlns="http://www.w3.org/2000/svg">
<path d="M3.67281 1.16907L21.8098 19.7751C22.1284 20.1019 22.3066 20.5402 22.3066 20.9966C22.3066 21.4529 22.1284 21.8913 21.8098 22.2181L3.67281 40.8311C3.52443 40.9835 3.34701 41.1046 3.15104 41.1873C2.95507 41.27 2.74452 41.3126 2.53181 41.3126C2.31911 41.3126 2.10855 41.27 1.91258 41.1873C1.71661 41.1046 1.5392 40.9835 1.39081 40.8311C1.08554 40.5185 0.914627 40.099 0.914627 39.6621C0.914627 39.2252 1.08554 38.8056 1.39081 38.4931L18.4463 20.9966L1.39081 3.50356C1.08658 3.19118 0.916336 2.77236 0.916336 2.33632C0.916336 1.90027 1.08658 1.48145 1.39081 1.16907C1.5392 1.01666 1.71661 0.895532 1.91258 0.812822C2.10855 0.730113 2.31911 0.6875 2.53181 0.6875C2.74452 0.6875 2.95507 0.730113 3.15104 0.812822C3.34701 0.895532 3.52443 1.01666 3.67281 1.16907Z" fill="white"/>
</svg>
