<svg width="18" height="18" viewBox="0 0 18 18" fill="none" xmlns="http://www.w3.org/2000/svg">
<path d="M9 16.875C6.91142 16.875 4.90838 16.0453 3.43153 14.5685C1.95468 13.0916 1.125 11.0886 1.125 9C1.125 6.91142 1.95468 4.90838 3.43153 3.43153C4.90838 1.95468 6.91142 1.125 9 1.125C11.0886 1.125 13.0916 1.95468 14.5685 3.43153C16.0453 4.90838 16.875 6.91142 16.875 9C16.875 11.0886 16.0453 13.0916 14.5685 14.5685C13.0916 16.0453 11.0886 16.875 9 16.875ZM9 18C11.3869 18 13.6761 17.0518 15.364 15.364C17.0518 13.6761 18 11.3869 18 9C18 6.61305 17.0518 4.32387 15.364 2.63604C13.6761 0.948212 11.3869 0 9 0C6.61305 0 4.32387 0.948212 2.63604 2.63604C0.948212 4.32387 0 6.61305 0 9C0 11.3869 0.948212 13.6761 2.63604 15.364C4.32387 17.0518 6.61305 18 9 18Z" fill="white"/>
<path d="M5.91235 6.50925C5.91081 6.54558 5.91672 6.58184 5.92971 6.61581C5.9427 6.64977 5.9625 6.68072 5.9879 6.70674C6.01329 6.73277 6.04374 6.75333 6.07738 6.76715C6.11101 6.78097 6.14712 6.78777 6.18347 6.78713H7.1116C7.26685 6.78713 7.3906 6.66 7.41085 6.50588C7.5121 5.76787 8.01835 5.23013 8.9206 5.23013C9.69235 5.23013 10.3988 5.616 10.3988 6.54412C10.3988 7.2585 9.9781 7.587 9.31322 8.0865C8.5561 8.63663 7.95647 9.279 7.99922 10.3219L8.0026 10.566C8.00378 10.6398 8.03393 10.7102 8.08655 10.762C8.13917 10.8137 8.21003 10.8428 8.28385 10.8427H9.19622C9.27082 10.8427 9.34235 10.8131 9.3951 10.7604C9.44784 10.7076 9.47747 10.6361 9.47747 10.5615V10.4434C9.47747 9.63562 9.7846 9.4005 10.6137 8.77163C11.2988 8.25075 12.0132 7.6725 12.0132 6.45863C12.0132 4.75875 10.5777 3.9375 9.0061 3.9375C7.58072 3.9375 6.01922 4.60125 5.91235 6.50925ZM7.66397 12.9926C7.66397 13.5922 8.1421 14.0355 8.80022 14.0355C9.48535 14.0355 9.95672 13.5922 9.95672 12.9926C9.95672 12.3716 9.48422 11.9351 8.7991 11.9351C8.1421 11.9351 7.66397 12.3716 7.66397 12.9926Z" fill="white"/>
</svg>
