<svg width="8" height="8" viewBox="0 0 8 8" fill="none" xmlns="http://www.w3.org/2000/svg">
<path d="M3.72599 6.523C3.75657 6.56742 3.79749 6.60373 3.84522 6.62882C3.89296 6.65391 3.94607 6.66701 3.99999 6.66701C4.05392 6.66701 4.10703 6.65391 4.15476 6.62882C4.2025 6.60373 4.24341 6.56742 4.27399 6.523L7.274 2.18967C7.30872 2.13969 7.32908 2.08115 7.33287 2.0204C7.33666 1.95966 7.32373 1.89904 7.29549 1.84513C7.26725 1.79122 7.22477 1.74608 7.17267 1.71462C7.12058 1.68316 7.06085 1.66657 7 1.66667H0.999994C0.939275 1.66692 0.879774 1.68372 0.827888 1.71526C0.776002 1.74679 0.733695 1.79188 0.705517 1.84567C0.677339 1.89945 0.664356 1.9599 0.667964 2.02051C0.671572 2.08112 0.691634 2.13961 0.725994 2.18967L3.72599 6.523Z" fill="#003174"/>
</svg>
