<svg width="36" height="36" viewBox="0 0 36 36" fill="none" xmlns="http://www.w3.org/2000/svg">
<path d="M15.06 30.12C12.0814 30.12 9.16972 29.2368 6.69312 27.5819C4.21651 25.9271 2.28624 23.5751 1.14638 20.8232C0.00652516 18.0714 -0.291713 15.0433 0.289381 12.1219C0.870474 9.20059 2.3048 6.51716 4.41098 4.41098C6.51716 2.3048 9.20059 0.870474 12.1219 0.289381C15.0433 -0.291713 18.0714 0.00652516 20.8232 1.14638C23.5751 2.28624 25.9271 4.21651 27.5819 6.69312C29.2368 9.16972 30.12 12.0814 30.12 15.06C30.12 17.0377 29.7305 18.9961 28.9736 20.8232C28.2168 22.6504 27.1075 24.3106 25.709 25.709C24.3106 27.1075 22.6504 28.2168 20.8232 28.9736C18.9961 29.7305 17.0377 30.12 15.06 30.12V30.12ZM15.06 3.02001C12.6866 3.02001 10.3666 3.72379 8.39316 5.04237C6.41977 6.36095 4.8817 8.23509 3.97345 10.4278C3.0652 12.6205 2.82756 15.0333 3.29058 17.3611C3.75361 19.6889 4.8965 21.8271 6.57473 23.5053C8.25296 25.1835 10.3912 26.3264 12.7189 26.7894C15.0467 27.2525 17.4595 27.0148 19.6522 26.1066C21.8449 25.1983 23.7191 23.6602 25.0376 21.6869C26.3562 19.7135 27.06 17.3934 27.06 15.02C27.06 11.8374 25.7957 8.78516 23.5453 6.53473C21.2949 4.28429 18.2426 3.02001 15.06 3.02001Z" fill="white"/>
<path d="M33.5195 35.0199C33.3224 35.0209 33.1271 34.9824 32.9451 34.9069C32.763 34.8313 32.5979 34.7202 32.4595 34.5799L24.1995 26.3199C23.9345 26.0356 23.7903 25.6595 23.7971 25.2709C23.804 24.8823 23.9614 24.5115 24.2362 24.2367C24.511 23.9619 24.8818 23.8045 25.2704 23.7976C25.659 23.7907 26.0351 23.935 26.3195 24.1999L34.5795 32.4599C34.8604 32.7412 35.0181 33.1224 35.0181 33.5199C35.0181 33.9174 34.8604 34.2987 34.5795 34.5799C34.441 34.7202 34.2759 34.8313 34.0938 34.9069C33.9118 34.9824 33.7165 35.0209 33.5195 35.0199V35.0199Z" fill="white"/>
<path d="M15.0195 21.52C14.6233 21.5148 14.2448 21.3551 13.9646 21.075C13.6844 20.7948 13.5247 20.4162 13.5195 20.02V10.02C13.5195 9.62219 13.6776 9.24066 13.9589 8.95936C14.2402 8.67805 14.6217 8.52002 15.0195 8.52002C15.4174 8.52002 15.7989 8.67805 16.0802 8.95936C16.3615 9.24066 16.5195 9.62219 16.5195 10.02V20.02C16.5144 20.4162 16.3547 20.7948 16.0745 21.075C15.7943 21.3551 15.4157 21.5148 15.0195 21.52V21.52Z" fill="white"/>
<path d="M20.0195 16.52H10.0195C9.62171 16.52 9.24018 16.362 8.95887 16.0807C8.67757 15.7994 8.51953 15.4178 8.51953 15.02C8.51953 14.6222 8.67757 14.2407 8.95887 13.9594C9.24018 13.6781 9.62171 13.52 10.0195 13.52H20.0195C20.4174 13.52 20.7989 13.6781 21.0802 13.9594C21.3615 14.2407 21.5195 14.6222 21.5195 15.02C21.5195 15.4178 21.3615 15.7994 21.0802 16.0807C20.7989 16.362 20.4174 16.52 20.0195 16.52V16.52Z" fill="white"/>
</svg>
